<svg id="Capa_1" enable-background="new 0 0 508.88 508.88" height="512" viewBox="0 0 508.88 508.88" width="512" xmlns="http://www.w3.org/2000/svg"><path d="m487.901 205.38c0-4.142-3.358-7.5-7.5-7.5h-384.5v-.5c0-1.011-.053-2.01-.146-2.997l27.021-9.021c3.929-1.312 6.051-5.56 4.739-9.488-1.312-3.929-5.557-6.052-9.489-4.739l-3.482 1.162 30.963-61.994 40.586-13.548-30.963 61.994-5.098 1.702c-3.929 1.312-6.051 5.56-4.739 9.489s5.558 6.053 9.489 4.739l303.989-101.478c1.887-.63 3.446-1.983 4.334-3.763.889-1.779 1.035-3.839.405-5.726l-17.732-53.119c-2.707-8.106-11.501-12.501-19.61-9.794l-394.595 131.724c-8.106 2.706-12.5 11.503-9.794 19.61l12.283 36.795c-.751 2.692-1.161 5.524-1.161 8.452v24c0 8.036 3.029 15.375 8 20.946v251.054c0 8.547 6.953 15.5 15.5 15.5h416c8.547 0 15.5-6.953 15.5-15.5zm-15 56.5h-30.394l30.394-30.394zm-158.394 0 49-49h42.787l-49 49zm-64 0 49-49h42.787l-49 49zm-64 0 49-49h42.787l-49 49zm-64 0 49-49h42.787l-49 49zm27.787-49-49 49h-45.393v-10.175c2.706.76 5.555 1.175 8.5 1.175 17.369 0 31.5-14.131 31.5-31.5v-8.5zm-102.393 8.5v-24c0-9.098 7.402-16.5 16.5-16.5s16.5 7.402 16.5 16.5v24c0 9.098-7.402 16.5-16.5 16.5s-16.5-7.402-16.5-16.5zm46.521-42.366-3.624 1.21c-5.162-7.915-13.779-13.374-23.697-14.22l17.698-35.436 40.585-13.548zm111.791-88.976 40.586-13.548-30.963 61.994-40.586 13.548zm101.293-33.813-30.963 61.994-40.586 13.548 30.963-61.994zm60.707-20.266-30.963 61.994-40.585 13.548 30.963-61.994zm78.694 25.389-28.83 9.624 19.206-38.454zm-17.987-45.654-30.963 61.995-40.587 13.548 30.963-61.994zm-392.597 131.056 28.355-9.465-16.548 33.132c-1.257.761-2.454 1.61-3.588 2.534l-8.535-25.568c-.087-.261.054-.545.316-.633zm436.078 347.13h-416c-.276 0-.5-.225-.5-.5v-216.5h328.5c4.142 0 7.5-3.358 7.5-7.5s-3.358-7.5-7.5-7.5h-5.894l49-49h42.787l-49 49h-4.891c-4.142 0-7.5 3.358-7.5 7.5s3.358 7.5 7.5 7.5h56.498v216.5c0 .276-.225.5-.5.5z"/><path d="m416.401 341.88h-304c-4.142 0-7.5 3.358-7.5 7.5s3.358 7.5 7.5 7.5h304c4.142 0 7.5-3.358 7.5-7.5s-3.358-7.5-7.5-7.5z"/><path d="m416.401 413.88h-304c-4.142 0-7.5 3.358-7.5 7.5s3.358 7.5 7.5 7.5h304c4.142 0 7.5-3.358 7.5-7.5s-3.358-7.5-7.5-7.5z"/></svg>