<?xml version="1.0" encoding="iso-8859-1"?>
<!-- Generator: Adobe Illustrator 19.0.0, SVG Export Plug-In . SVG Version: 6.00 Build 0)  -->
<svg version="1.1" id="Capa_1" xmlns="http://www.w3.org/2000/svg" xmlns:xlink="http://www.w3.org/1999/xlink" x="0px" y="0px"
	 viewBox="0 0 512 512" style="enable-background:new 0 0 512 512;" xml:space="preserve">
<g>
	<path style="fill:#D4E1F4;" d="M145.067,363.866L19.612,403.07c-2.591,0.81-5.413,0.338-7.6-1.27
		c-2.187-1.608-3.479-4.161-3.479-6.875V264.539c0-2.715,1.292-5.267,3.479-6.875s5.009-2.079,7.6-1.27l125.455,39.205V363.866z"/>
	<path style="fill:#FFFFFF;" d="M34.133,397.993V267.607c0.002-2.215,0.878-4.34,2.438-5.912l-16.959-5.3
		c-2.591-0.81-5.413-0.338-7.6,1.27s-3.479,4.161-3.479,6.875v130.386c0,2.715,1.291,5.268,3.479,6.876s5.009,2.079,7.6,1.27
		l14.584-4.558C34.185,398.336,34.133,398.174,34.133,397.993z"/>
	<path style="fill:#D4E1F4;" d="M162.133,256H486.4c9.426,0,17.067,7.641,17.067,17.067V409.6c0,9.426-7.641,17.067-17.067,17.067
		H162.133c-9.426,0-17.067-7.641-17.067-17.067V273.067C145.067,263.641,152.708,256,162.133,256z"/>
	<g>
		<path style="fill:#A4C2F7;" d="M486.4,256h-25.6c9.426,0,17.067,7.641,17.067,17.067V409.6c0,9.426-7.641,17.067-17.067,17.067
			h25.6c9.426,0,17.067-7.641,17.067-17.067V273.067C503.467,263.641,495.826,256,486.4,256z"/>
		<path style="fill:#A4C2F7;" d="M213.333,358.4H281.6c4.713,0,8.533,3.82,8.533,8.533V384c0,4.713-3.821,8.533-8.533,8.533h-68.267
			c-4.713,0-8.533-3.82-8.533-8.533v-17.067C204.8,362.221,208.621,358.4,213.333,358.4z"/>
		<path style="fill:#A4C2F7;" d="M213.333,290.133H281.6c4.713,0,8.533,3.82,8.533,8.533v17.067c0,4.713-3.821,8.533-8.533,8.533
			h-68.267c-4.713,0-8.533-3.821-8.533-8.533v-17.067C204.8,293.954,208.621,290.133,213.333,290.133z"/>
	</g>
	<g>
		<path style="fill:#7FACFA;" d="M281.6,290.133H256c4.713,0,8.533,3.82,8.533,8.533v17.067c0,4.713-3.821,8.533-8.533,8.533h25.6
			c4.713,0,8.533-3.821,8.533-8.533v-17.067C290.133,293.954,286.313,290.133,281.6,290.133z"/>
		<path style="fill:#7FACFA;" d="M281.6,358.4H256c4.713,0,8.533,3.82,8.533,8.533V384c0,4.713-3.821,8.533-8.533,8.533h25.6
			c4.713,0,8.533-3.82,8.533-8.533v-17.067C290.133,362.221,286.313,358.4,281.6,358.4z"/>
	</g>
	<circle style="fill:#A4C2F7;" cx="401.067" cy="366.933" r="25.6"/>
	<path style="fill:#7FACFA;" d="M401.067,341.333c-2.913,0.029-5.8,0.559-8.533,1.568c10.22,3.567,17.067,13.207,17.067,24.032
		s-6.846,20.465-17.067,24.032c9.595,3.419,20.305,0.813,27.257-6.632c6.952-7.445,8.82-18.307,4.753-27.646
		S411.253,341.316,401.067,341.333z"/>
	<g>
		<circle style="fill:#A4C2F7;" cx="213.333" cy="170.667" r="85.333"/>
		<circle style="fill:#A4C2F7;" cx="418.133" cy="170.667" r="85.333"/>
	</g>
	<path style="fill:#7FACFA;" d="M418.133,85.333c-4.287,0.033-8.566,0.388-12.8,1.062c41.697,6.277,72.534,42.104,72.534,84.271
		s-30.837,77.994-72.534,84.271c31.652,4.822,63.337-8.489,82.05-34.469s21.299-60.25,6.697-88.743
		C479.479,103.233,450.15,85.317,418.133,85.333L418.133,85.333z"/>
	<path style="fill:#FFFFFF;" d="M213.333,85.333c4.287,0.033,8.566,0.388,12.8,1.062c-41.697,6.277-72.534,42.104-72.534,84.271
		s30.837,77.994,72.534,84.271c-31.652,4.822-63.337-8.489-82.05-34.469s-21.299-60.25-6.697-88.743S181.317,85.317,213.333,85.333z
		"/>
	<g>
		<circle style="fill:#D4E1F4;" cx="213.333" cy="170.667" r="25.6"/>
		<circle style="fill:#D4E1F4;" cx="418.133" cy="170.667" r="25.6"/>
	</g>
	<g>
		<circle style="fill:#428DFF;" cx="435.2" cy="298.667" r="8.533"/>
		<circle style="fill:#428DFF;" cx="401.067" cy="298.667" r="8.533"/>
		<circle style="fill:#428DFF;" cx="366.933" cy="298.667" r="8.533"/>
		<path style="fill:#428DFF;" d="M486.4,435.2H162.133c-14.132-0.015-25.585-11.468-25.6-25.6V273.067
			c0.015-14.132,11.468-25.585,25.6-25.6H486.4c14.132,0.015,25.585,11.468,25.6,25.6V409.6
			C511.985,423.732,500.532,435.185,486.4,435.2z M162.133,264.533c-4.711,0.005-8.529,3.822-8.533,8.533V409.6
			c0.005,4.711,3.822,8.529,8.533,8.533H486.4c4.712-0.003,8.53-3.822,8.533-8.533V273.067c-0.003-4.712-3.822-8.53-8.533-8.533
			H162.133z"/>
		<path style="fill:#428DFF;" d="M17.017,415.075C7.608,415.037,0.001,407.4,0,397.992V267.608
			c-0.003-5.431,2.579-10.539,6.955-13.756s10.021-4.159,15.204-2.536l125.454,39.208c3.563,1.11,5.989,4.41,5.987,8.142v68.267
			c0.002,3.732-2.424,7.031-5.987,8.142L22.158,414.283C20.495,414.807,18.761,415.074,17.017,415.075z M17.067,267.6v130.392
			l119.467-37.333v-55.717L17.067,267.6z"/>
		<path style="fill:#428DFF;" d="M213.333,264.533c-51.841,0-93.867-42.026-93.867-93.867S161.492,76.8,213.333,76.8
			s93.867,42.026,93.867,93.867C307.141,222.484,265.15,264.475,213.333,264.533z M213.333,93.867c-42.415,0-76.8,34.385-76.8,76.8
			s34.385,76.8,76.8,76.8s76.8-34.385,76.8-76.8C290.086,128.271,255.729,93.914,213.333,93.867z"/>
		<path style="fill:#428DFF;" d="M418.133,264.533c-51.841,0-93.867-42.026-93.867-93.867S366.292,76.8,418.133,76.8
			S512,118.826,512,170.667C511.941,222.484,469.95,264.475,418.133,264.533z M418.133,93.867c-42.415,0-76.8,34.385-76.8,76.8
			s34.385,76.8,76.8,76.8s76.8-34.385,76.8-76.8C494.886,128.271,460.529,93.914,418.133,93.867z"/>
		<path style="fill:#428DFF;" d="M213.333,204.8c-18.851,0-34.133-15.282-34.133-34.133s15.282-34.133,34.133-34.133
			s34.133,15.282,34.133,34.133C247.447,189.51,232.176,204.78,213.333,204.8L213.333,204.8z M213.333,153.6
			c-9.426,0-17.067,7.641-17.067,17.067s7.641,17.067,17.067,17.067c9.426,0,17.067-7.641,17.067-17.067
			C230.389,161.245,222.755,153.611,213.333,153.6z"/>
		<path style="fill:#428DFF;" d="M418.133,204.8c-18.851,0-34.133-15.282-34.133-34.133s15.282-34.133,34.133-34.133
			c18.851,0,34.133,15.282,34.133,34.133C452.247,189.51,436.976,204.78,418.133,204.8L418.133,204.8z M418.133,153.6
			c-9.426,0-17.067,7.641-17.067,17.067s7.641,17.067,17.067,17.067s17.067-7.641,17.067-17.067
			C435.188,161.246,427.554,153.612,418.133,153.6L418.133,153.6z"/>
		<path style="fill:#428DFF;" d="M281.6,401.067h-68.267c-9.421-0.011-17.056-7.645-17.067-17.067v-17.067
			c0.011-9.421,7.645-17.056,17.067-17.067H281.6c9.421,0.011,17.056,7.645,17.067,17.067V384
			C298.656,393.421,291.021,401.056,281.6,401.067z M213.333,366.933V384h68.279l-0.012-17.067H213.333z"/>
		<path style="fill:#428DFF;" d="M281.6,332.8h-68.267c-9.421-0.011-17.056-7.645-17.067-17.067v-17.067
			c0.011-9.421,7.645-17.056,17.067-17.067H281.6c9.421,0.011,17.056,7.645,17.067,17.067v17.067
			C298.656,325.155,291.021,332.789,281.6,332.8z M213.333,298.667v17.067h68.279l-0.012-17.067H213.333z"/>
		<path style="fill:#428DFF;" d="M401.067,401.067c-18.851,0-34.133-15.282-34.133-34.133c0-18.851,15.282-34.133,34.133-34.133
			c18.851,0,34.133,15.282,34.133,34.133C435.18,385.776,419.91,401.047,401.067,401.067L401.067,401.067z M401.067,349.867
			c-9.426,0-17.067,7.641-17.067,17.067S391.641,384,401.067,384c9.426,0,17.067-7.641,17.067-17.067
			C418.123,357.512,410.488,349.877,401.067,349.867z"/>
	</g>
</g>
<g>
</g>
<g>
</g>
<g>
</g>
<g>
</g>
<g>
</g>
<g>
</g>
<g>
</g>
<g>
</g>
<g>
</g>
<g>
</g>
<g>
</g>
<g>
</g>
<g>
</g>
<g>
</g>
<g>
</g>
</svg>
